<?xml version="1.0" encoding="utf-8"?>
<!-- Generator: Adobe Illustrator 20.1.0, SVG Export Plug-In . SVG Version: 6.00 Build 0)  -->
<svg version="1.1" id="Layer_1" xmlns="http://www.w3.org/2000/svg" xmlns:xlink="http://www.w3.org/1999/xlink" x="0px" y="0px"
	 viewBox="0 0 512 512" style="enable-background:new 0 0 512 512;" xml:space="preserve">
<style type="text/css">
	.st0{fill:#804426;}
	.st1{fill:#99522E;}
	.st2{fill:#A6673A;}
	.st3{fill:#88CC2A;}
	.st4{fill:#7FB335;}
	.st5{fill:#736056;}
	.st6{fill:#665247;}
</style>
<path class="st0" d="M411.8,272.7h-50.1c-9.2,0-16.7-7.5-16.7-16.7s7.5-16.7,16.7-16.7h50.1c9.2,0,16.7-7.5,16.7-16.7v-33.4
	c0-9.2,7.5-16.7,16.7-16.7s16.7,7.5,16.7,16.7v33.4C461.9,250.2,439.4,272.7,411.8,272.7z"/>
<path class="st1" d="M161.4,339.5H128c-27.6,0-50.1-22.5-50.1-50.1c0-9.2,7.5-16.7,16.7-16.7s16.7,7.5,16.7,16.7s7.5,16.7,16.7,16.7
	h33.4c9.2,0,16.7,7.5,16.7,16.7S170.6,339.5,161.4,339.5z"/>
<path class="st2" d="M378.4,189.2V256c0,46.1-37.4,83.5-83.5,83.5c-9.2,0-16.7,7.5-16.7,16.7v33.4c0,9.2-7.5,16.7-16.7,16.7H161.4
	c-9.2,0-16.7-7.5-16.7-16.7v-33.4c0-64.4,52.4-116.9,116.9-116.9c9.2,0,16.7-7.5,16.7-16.7v-33.4c0-9.2,7.5-16.7,16.7-16.7h66.8
	C371,172.5,378.4,180,378.4,189.2z"/>
<path class="st1" d="M378.4,189.2V256c0,46.1-37.4,83.5-83.5,83.5c-9.2,0-16.7,7.5-16.7,16.7v33.4c0,9.2-7.5,16.7-16.7,16.7v-167
	c9.2,0,16.7-7.5,16.7-16.7v-33.4c0-9.2,7.5-16.7,16.7-16.7h66.8C371,172.5,378.4,180,378.4,189.2z"/>
<path class="st3" d="M438.7,72.7C422.7,33,379,5.6,328.3,5.6S234,33,218,72.7c-39.6-3.8-73.3,27.4-73.3,66.5
	c0,36.8,30,66.8,66.8,66.8h233.7c36.8,0,66.8-30,66.8-66.8C512,100.1,478.3,68.8,438.7,72.7z"/>
<g>
	<path class="st4" d="M438.7,72.7C422.7,33,379,5.6,328.3,5.6c-24.7,0-47.8,6.6-66.8,17.9V206h183.7c36.8,0,66.8-30,66.8-66.8
		C512,100.1,478.3,68.8,438.7,72.7z"/>
	<path class="st4" d="M111.3,289.4H50.1C22.5,289.4,0,266.9,0,239.3c0-19.4,11.7-36.7,29.2-45c2.1-8.8,6.5-16.8,12.9-23.4
		c9.5-9.7,22.2-15.1,35.8-15.1c22.6,0,41.7,15,47.9,35.5c20.5,6.2,35.5,25.4,35.5,47.9C161.4,266.9,138.9,289.4,111.3,289.4z"/>
</g>
<path class="st5" d="M361.7,506.4H161.4C97,506.4,44.5,454,44.5,389.5c0-9.2,7.5-16.7,16.7-16.7h400.7c9.2,0,16.7,7.5,16.7,16.7
	C478.6,454,426.2,506.4,361.7,506.4z"/>
<path class="st2" d="M361.7,406.3c-9.2,0-16.7-7.5-16.7-16.7v-33.4c0-9.2,7.5-16.7,16.7-16.7s16.7,7.5,16.7,16.7v33.4
	C378.4,398.8,371,406.3,361.7,406.3z"/>
<path class="st6" d="M461.9,372.9H261.6v133.6h100.2c64.4,0,116.9-52.4,116.9-116.9C478.6,380.3,471.1,372.9,461.9,372.9z"/>
</svg>
