<?xml version="1.0" encoding="utf-8"?>
<!-- Generator: Adobe Illustrator 20.1.0, SVG Export Plug-In . SVG Version: 6.00 Build 0)  -->
<svg version="1.1" id="Calque_1" xmlns="http://www.w3.org/2000/svg" xmlns:xlink="http://www.w3.org/1999/xlink" x="0px" y="0px"
	 viewBox="0 0 24 24" style="enable-background:new 0 0 24 24;" xml:space="preserve">
<style type="text/css">
	.st0{fill:#84E296;}
</style>
<path class="st0" d="M20,12c0-4.4-3.6-8-8-8s-8,3.6-8,8s3.6,8,8,8S20,16.4,20,12 M22,12c0,5.5-4.5,10-10,10S2,17.5,2,12S6.5,2,12,2
	S22,6.5,22,12 M10,9.5c0,0.8-0.7,1.5-1.5,1.5S7,10.3,7,9.5S7.7,8,8.5,8S10,8.7,10,9.5 M17,9.5c0,0.8-0.7,1.5-1.5,1.5
	c-0.8,0-1.5-0.7-1.5-1.5S14.7,8,15.5,8C16.3,8,17,8.7,17,9.5 M12,17.2c-1.8,0-3.3-0.7-4.2-1.8L9.2,14c0.5,0.7,1.5,1.2,2.8,1.2
	s2.3-0.5,2.8-1.2l1.4,1.4C15.3,16.5,13.8,17.2,12,17.2z"/>
</svg>
