<?xml version="1.0" encoding="UTF-8"?>
<svg width="25px" height="31px" viewBox="0 0 25 31" version="1.1" xmlns="http://www.w3.org/2000/svg" xmlns:xlink="http://www.w3.org/1999/xlink">
    <!-- Generator: Sketch 40.1 (33804) - http://www.bohemiancoding.com/sketch -->
    <title>file-document</title>
    <desc>Created with Sketch.</desc>
    <defs></defs>
    <g id="Page-1" stroke="none" stroke-width="1" fill="none" fill-rule="evenodd">
        <g id="01-accueil" transform="translate(-1151.000000, -1477.000000)" fill="#000000">
            <g id="file-document" transform="translate(1163.500000, 1492.500000) scale(-1, 1) translate(-1163.500000, -1492.500000) translate(1151.000000, 1477.000000)">
                <path d="M14.0625,10.85 L22.65625,10.85 L14.0625,2.325 L14.0625,10.85 L14.0625,10.85 Z M3.125,0 L15.625,0 L25,9.3 L25,27.9 C25,29.6120827 23.6008898,31 21.875,31 L3.125,31 C1.390625,31 0,29.605 0,27.9 L0,3.1 C0,1.3795 1.390625,0 3.125,0 L3.125,0 Z M17.1875,24.8 L17.1875,21.7 L3.125,21.7 L3.125,24.8 L17.1875,24.8 L17.1875,24.8 Z M21.875,18.6 L21.875,15.5 L3.125,15.5 L3.125,18.6 L21.875,18.6 L21.875,18.6 Z" id="Shape"></path>
            </g>
        </g>
    </g>
</svg>