<?xml version="1.0" encoding="utf-8"?>
<!-- Generator: Adobe Illustrator 20.1.0, SVG Export Plug-In . SVG Version: 6.00 Build 0)  -->
<svg version="1.1" id="Calque_1" xmlns="http://www.w3.org/2000/svg" xmlns:xlink="http://www.w3.org/1999/xlink" x="0px" y="0px"
	 viewBox="0 0 258 258" style="enable-background:new 0 0 258 258;" xml:space="preserve">
<style type="text/css">
	.st0{fill:#FFFFFF;}
</style>
<g>
	<path class="st0" d="M18.7,83.3l89.5-67.5l89.5,67.5c1.3,1,2.7,1.4,4.2,1.4c2.1,0,4.2-1,5.6-2.8c2.3-3.1,1.7-7.5-1.4-9.8L112.4,1.4
		c-2.5-1.9-5.9-1.9-8.4,0L10.2,72.1c-3.1,2.3-3.7,6.7-1.4,9.8C11.2,85,15.6,85.6,18.7,83.3z"/>
	<path class="st0" d="M242.6,187.2c8.6-10.6,10.4-25,4.8-37.5c-5.5-12.4-16.8-20.1-30.2-20.8c-0.7,0-1.4-0.1-2.1-0.1
		c-2.1,0-4.2,0.2-6.3,0.5v-21.9c0-2.2-1-4.3-2.8-5.6l-93.7-70.7c-2.5-1.9-5.9-1.9-8.4,0l-93.7,70.7c-1.8,1.3-2.8,3.4-2.8,5.6v119
		c0,3.9,3.1,7,7,7h144.4l17.8,22c1.3,1.6,3.3,2.6,5.4,2.6s4.1-1,5.4-2.6l19.8-24.5l0,0L242.6,187.2L242.6,187.2z M21.4,111
		l86.7-65.4l86.7,65.4v23.4c-5.1,3-9.5,7.1-12.9,12c-7.2-10.6-19.4-17.5-33.1-17.5c-0.7,0-1.4,0-2.1,0.1
		c-13.4,0.7-24.7,8.5-30.2,20.8c-5.6,12.5-3.7,26.9,4.8,37.5l26,32.2h-126L21.4,111L21.4,111z M132.3,178.4
		c-5.2-6.5-6.4-15.3-2.9-23c3.3-7.5,10.1-12.1,18.1-12.6c0.4,0,0.9,0,1.4,0c14.4,0,26.1,11.7,26.1,26.1c0,3.9,3.1,7,7,7s7-3.1,7-7
		c0-14.4,11.7-26.1,26.1-26.1c0.5,0,0.9,0,1.4,0c8,0.4,14.8,5.1,18.1,12.6c3.4,7.7,2.3,16.5-2.9,23L182,239.9L132.3,178.4
		L132.3,178.4z"/>
</g>
</svg>
