<?xml version="1.0" encoding="UTF-8"?>
<svg width="20px" height="20px" viewBox="0 0 20 20" version="1.1" xmlns="http://www.w3.org/2000/svg" xmlns:xlink="http://www.w3.org/1999/xlink">
    <!-- Generator: Sketch 40.1 (33804) - http://www.bohemiancoding.com/sketch -->
    <title>pine-tree-box</title>
    <desc>Created with Sketch.</desc>
    <defs></defs>
    <g id="Page-1" stroke="none" stroke-width="1" fill="none" fill-rule="evenodd">
        <g id="01-accueil" transform="translate(-1096.000000, -77.000000)" fill="#84E296">
            <g id="pine-tree-box" transform="translate(1096.000000, 77.000000)">
                <path d="M2,0 L18,0 C19.1045695,0 20,0.8954305 20,2 L20,18 C20,19.1045695 19.1045695,20 18,20 L2,20 C0.8954305,20 0,19.1045695 0,18 L0,2 C-2.22044605e-16,0.8954305 0.8954305,0 2,0 L2,0 Z M9,17 L11,17 L11,15 L16,15 L12,11 L15,11 L11,7 L14,7 L10,3 L6,7 L9,7 L5,11 L8,11 L4,15 L9,15 L9,17 L9,17 Z" id="Shape"></path>
            </g>
        </g>
    </g>
</svg>