<?xml version="1.0" encoding="UTF-8"?>
<svg width="15px" height="18px" viewBox="0 0 15 18" version="1.1" xmlns="http://www.w3.org/2000/svg" xmlns:xlink="http://www.w3.org/1999/xlink">
    <!-- Generator: Sketch 40.1 (33804) - http://www.bohemiancoding.com/sketch -->
    <title>tree (1)</title>
    <desc>Created with Sketch.</desc>
    <defs></defs>
    <g id="Page-1" stroke="none" stroke-width="1" fill="none" fill-rule="evenodd">
        <g id="01-accueil" transform="translate(-504.000000, -80.000000)" fill="#84E296">
            <g id="tree-(1)" transform="translate(504.000000, 80.000000)">
                <path d="M6,18 L6,13.74 C5.53,13.91 5.03,14 4.5,14 C2,14 0,12 0,9.5 C0,8.23 0.5,7.09 1.36,6.27 C1.13,5.73 1,5.13 1,4.5 C1,2 3,0 5.5,0 C7.06,0 8.44,0.8 9.25,2 L9.5,2 C10.9586907,2 12.3576372,2.57946262 13.3890873,3.6109127 C14.4205374,4.64236278 15,6.04130931 15,7.5 C15,8.95869069 14.4205374,10.3576372 13.3890873,11.3890873 C12.3576372,12.4205374 10.9586907,13 9.5,13 C9,13 8.5,12.93 8,12.79 L8,18 L6,18 L6,18 Z" id="Shape"></path>
            </g>
        </g>
    </g>
</svg>