<?xml version="1.0" encoding="utf-8"?>
<!-- Generator: Adobe Illustrator 20.1.0, SVG Export Plug-In . SVG Version: 6.00 Build 0)  -->
<svg version="1.1" id="Capa_1" xmlns="http://www.w3.org/2000/svg" xmlns:xlink="http://www.w3.org/1999/xlink" x="0px" y="0px"
	 viewBox="0 0 60 60" style="enable-background:new 0 0 60 60;" xml:space="preserve">
<style type="text/css">
	.st0{fill:#84E296;}
</style>
<g>
	<path class="st0" d="M46.2,22.7c0-1.5-0.8-2.7-2.1-3.3c1.1-0.9,1.5-2.4,1-3.8c-0.5-1.4-1.6-2.3-3-2.4c0.7-1.2,0.7-2.7-0.2-3.9
		C41,8.2,39.6,7.7,38.3,8c0.3-1.4-0.2-2.8-1.4-3.6c-1.2-0.9-2.7-0.9-3.9-0.2c-0.1-1.4-1-2.6-2.4-3c-1.4-0.5-2.8,0-3.8,1
		C26.2,0.8,25,0,23.5,0s-2.7,0.8-3.3,2.1c-0.9-1.1-2.4-1.5-3.8-1c-1.4,0.5-2.3,1.6-2.4,3c-1.2-0.7-2.7-0.7-3.9,0.2
		C8.9,5.2,8.4,6.6,8.7,8C7.4,7.7,6,8.2,5.1,9.4c-0.9,1.2-0.9,2.7-0.2,3.9c-1.4,0.1-2.6,1-3,2.4c-0.5,1.4,0,2.8,1,3.8
		c-1.3,0.5-2.1,1.8-2.1,3.3c0,1.5,0.8,2.7,2.1,3.3c-1.1,0.9-1.5,2.4-1,3.8s1.6,2.3,3,2.4c-0.7,1.2-0.7,2.7,0.2,3.9
		c0.9,1.2,2.3,1.7,3.6,1.4c-0.3,1.4,0.2,2.8,1.4,3.6c1.2,0.9,2.7,0.9,3.9,0.2c0.1,1.4,1,2.6,2.4,3c1,0.3,1.9,0.2,2.8-0.2V60h8V43.8
		c0.9,0.7,2.1,1,3.3,0.6c1.4-0.5,2.3-1.6,2.4-3c1.2,0.7,2.7,0.7,3.9-0.2c1.2-0.9,1.7-2.3,1.4-3.6c1.4,0.3,2.8-0.2,3.6-1.4
		s0.9-2.7,0.2-3.9c1.4-0.1,2.6-1,3-2.4c0.5-1.4,0-2.8-1-3.8C45.4,25.5,46.2,24.2,46.2,22.7z M25.2,58h-4V44.7c0,0,0.1,0,0.1,0.1
		c0.1,0.1,0.2,0.1,0.3,0.2c0.1,0,0.1,0.1,0.2,0.1c0.1,0.1,0.2,0.1,0.3,0.1c0.1,0,0.1,0.1,0.2,0.1c0.1,0,0.2,0.1,0.4,0.1
		c0.1,0,0.1,0,0.2,0c0.2,0,0.4,0,0.6,0c0.2,0,0.3,0,0.5,0c0.1,0,0.1,0,0.2,0c0.1,0,0.2,0,0.3-0.1c0.1,0,0.1,0,0.2-0.1
		c0.1,0,0.2-0.1,0.3-0.1c0.1,0,0.1-0.1,0.2-0.1c0,0,0.1,0,0.1-0.1L25.2,58L25.2,58z M42.9,24.3c-0.7,0.1-1.2,0.6-1.3,1.3
		c-0.1,0.7,0.2,1.4,0.9,1.7c0.9,0.4,1,1.3,0.8,1.9c-0.2,0.6-0.8,1.2-1.7,1.1c-0.7-0.1-1.4,0.2-1.7,0.9c-0.3,0.6-0.2,1.4,0.3,1.9
		c0.7,0.7,0.5,1.5,0.2,2c-0.4,0.5-1.1,0.9-2,0.5c-0.6-0.3-1.4-0.2-1.9,0.3c-0.5,0.5-0.6,1.2-0.3,1.9c0.5,0.9,0.1,1.6-0.5,2
		c-0.5,0.4-1.3,0.5-2-0.2c-0.5-0.5-1.2-0.6-1.9-0.3c-0.6,0.3-1,1-0.9,1.7c0.2,1-0.4,1.5-1.1,1.7c-0.6,0.2-1.4,0.1-1.9-0.8
		c-0.3-0.6-1-1-1.7-0.9c-0.1,0-0.2,0.1-0.4,0.1c0,0,0,0,0,0c0,0-0.1,0-0.1,0c-0.3,0.1-0.5,0.4-0.7,0.7c0,0,0,0,0,0
		c-0.1,0.2-0.1,0.4-0.2,0.5c-0.1,1-0.9,1.3-1.5,1.3s-1.4-0.3-1.5-1.3c0-0.1-0.1-0.3-0.1-0.4c-0.2-0.5-0.7-0.9-1.2-1c0,0-0.1,0-0.1,0
		c-0.1,0-0.2,0-0.3,0l-1,0.1v0.4c-0.1,0.1-0.2,0.2-0.3,0.4c-0.4,0.9-1.3,1-1.9,0.8c-0.6-0.2-1.2-0.8-1.1-1.7
		c0.1-0.7-0.2-1.4-0.9-1.7c-0.6-0.3-1.4-0.2-1.9,0.3c-0.7,0.7-1.5,0.5-2,0.2c-0.5-0.4-0.9-1.1-0.5-2c0.3-0.6,0.2-1.4-0.3-1.9
		c-0.5-0.5-1.2-0.6-1.9-0.3c-0.9,0.5-1.6,0.1-2-0.5c-0.4-0.5-0.5-1.3,0.2-2c0.5-0.5,0.6-1.2,0.3-1.9c-0.3-0.6-1-1-1.7-0.9
		c-1,0.2-1.5-0.4-1.7-1.1c-0.2-0.6-0.1-1.4,0.8-1.9c0.6-0.3,1-1,0.9-1.7c-0.1-0.7-0.6-1.2-1.3-1.3c-1-0.1-1.3-0.9-1.3-1.5
		s0.3-1.4,1.3-1.5c0.7-0.1,1.2-0.6,1.3-1.3s-0.2-1.4-0.9-1.7c-0.9-0.4-1-1.3-0.8-1.9c0.2-0.6,0.8-1.2,1.7-1.1
		c0.7,0.1,1.4-0.2,1.7-0.9c0.3-0.6,0.2-1.4-0.3-1.9c-0.7-0.7-0.5-1.5-0.2-2c0.4-0.5,1.1-0.9,2-0.5c0.6,0.3,1.4,0.2,1.9-0.3
		s0.6-1.2,0.3-1.9c-0.4-0.9-0.1-1.6,0.5-2c0.5-0.4,1.3-0.5,2,0.2c0.5,0.5,1.2,0.6,1.9,0.3c0.6-0.3,1-1,0.9-1.7
		c-0.2-1,0.4-1.5,1.1-1.7c0.6-0.2,1.4-0.1,1.9,0.8c0.3,0.6,1,1,1.7,0.9C21.3,4.5,21.9,4,22,3.3c0.2-1,0.9-1.3,1.5-1.3
		s1.4,0.3,1.5,1.3c0.1,0.7,0.6,1.2,1.3,1.3c0.7,0.1,1.4-0.2,1.7-0.9c0.4-0.9,1.3-1,1.9-0.8c0.6,0.2,1.2,0.8,1.1,1.7
		c-0.1,0.7,0.2,1.4,0.9,1.7c0.6,0.3,1.4,0.2,1.9-0.3c0.7-0.7,1.5-0.5,2-0.2c0.5,0.4,0.9,1.1,0.5,2c-0.3,0.6-0.2,1.4,0.3,1.9
		s1.2,0.6,1.9,0.3c0.9-0.5,1.6-0.1,2,0.5c0.4,0.5,0.5,1.3-0.2,2c-0.5,0.5-0.6,1.2-0.3,1.9c0.3,0.6,1,1,1.7,0.9
		c1-0.2,1.5,0.4,1.7,1.1s0.1,1.4-0.8,1.9c-0.6,0.3-1,1-0.9,1.7s0.6,1.2,1.3,1.3c1,0.1,1.3,0.9,1.3,1.5
		C44.2,23.4,43.9,24.1,42.9,24.3z"/>
	<path class="st0" d="M35.2,26c0-0.6-0.4-1-1-1c-5,0-9,4-9,9c0,0.6,0.4,1,1,1s1-0.4,1-1c0-3.9,3.1-7,7-7C34.8,27,35.2,26.6,35.2,26z
		"/>
	<path class="st0" d="M12.2,28c-0.6,0-1,0.4-1,1s0.4,1,1,1c3.9,0,7,3.1,7,7c0,0.6,0.4,1,1,1s1-0.4,1-1C21.2,32,17.2,28,12.2,28z"/>
	<path class="st0" d="M14.2,17c-0.6,0-1,0.4-1,1s0.4,1,1,1c3.9,0,7,3.1,7,7c0,0.6,0.4,1,1,1s1-0.4,1-1C23.2,21,19.2,17,14.2,17z"/>
	<path class="st0" d="M31.2,11c0.6,0,1-0.4,1-1s-0.4-1-1-1c-5,0-9,4-9,9c0,0.6,0.4,1,1,1s1-0.4,1-1C24.2,14.1,27.4,11,31.2,11z"/>
	<path class="st0" d="M38.2,17c-1.1,0-2-0.9-2-2c0-0.6-0.4-1-1-1s-1,0.4-1,1c0,2.2,1.8,4,4,4c0.6,0,1-0.4,1-1S38.8,17,38.2,17z"/>
	<path class="st0" d="M28.2,22c0,0.6,0.4,1,1,1s1-0.4,1-1c0-1.1,0.9-2,2-2c0.6,0,1-0.4,1-1s-0.4-1-1-1C30,18,28.2,19.8,28.2,22z"/>
	<path class="st0" d="M20.2,12c0.6,0,1-0.4,1-1s-0.4-1-1-1c-1.1,0-2-0.9-2-2c0-0.6-0.4-1-1-1s-1,0.4-1,1C16.2,10.2,18,12,20.2,12z"
		/>
	<path class="st0" d="M13.2,21c0-0.6-0.4-1-1-1s-1,0.4-1,1c0,1.1-0.9,2-2,2c-0.6,0-1,0.4-1,1s0.4,1,1,1C11.4,25,13.2,23.2,13.2,21z"
		/>
	<path class="st0" d="M36.2,30c-2.2,0-4,1.8-4,4c0,0.6,0.4,1,1,1s1-0.4,1-1c0-1.1,0.9-2,2-2c0.6,0,1-0.4,1-1S36.8,30,36.2,30z"/>
	<path class="st0" d="M17.2,57c-0.6,0-1,0.4-1,1v1c0,0.6,0.4,1,1,1s1-0.4,1-1v-1C18.2,57.4,17.8,57,17.2,57z"/>
	<path class="st0" d="M14.2,57c-0.6,0-1,0.4-1,1v1c0,0.6,0.4,1,1,1s1-0.4,1-1v-1C15.2,57.4,14.8,57,14.2,57z"/>
	<path class="st0" d="M11.2,57c-0.6,0-1,0.4-1,1v1c0,0.6,0.4,1,1,1s1-0.4,1-1v-1C12.2,57.4,11.8,57,11.2,57z"/>
	<path class="st0" d="M8.2,57c-0.6,0-1,0.4-1,1v1c0,0.6,0.4,1,1,1s1-0.4,1-1v-1C9.2,57.4,8.8,57,8.2,57z"/>
	<path class="st0" d="M5.2,57c-0.6,0-1,0.4-1,1v1c0,0.6,0.4,1,1,1s1-0.4,1-1v-1C6.2,57.4,5.8,57,5.2,57z"/>
	<path class="st0" d="M35.2,57c-0.6,0-1,0.4-1,1v1c0,0.6,0.4,1,1,1s1-0.4,1-1v-1C36.2,57.4,35.8,57,35.2,57z"/>
	<path class="st0" d="M32.2,57c-0.6,0-1,0.4-1,1v1c0,0.6,0.4,1,1,1c0.6,0,1-0.4,1-1v-1C33.2,57.4,32.8,57,32.2,57z"/>
	<path class="st0" d="M29.2,57c-0.6,0-1,0.4-1,1v1c0,0.6,0.4,1,1,1s1-0.4,1-1v-1C30.2,57.4,29.8,57,29.2,57z"/>
	<path class="st0" d="M44.2,57c-0.6,0-1,0.4-1,1v1c0,0.6,0.4,1,1,1s1-0.4,1-1v-1C45.2,57.4,44.8,57,44.2,57z"/>
	<path class="st0" d="M41.2,57c-0.6,0-1,0.4-1,1v1c0,0.6,0.4,1,1,1s1-0.4,1-1v-1C42.2,57.4,41.8,57,41.2,57z"/>
	<path class="st0" d="M38.2,57c-0.6,0-1,0.4-1,1v1c0,0.6,0.4,1,1,1s1-0.4,1-1v-1C39.2,57.4,38.8,57,38.2,57z"/>
	<path class="st0" d="M53.2,57c-0.6,0-1,0.4-1,1v1c0,0.6,0.4,1,1,1s1-0.4,1-1v-1C54.2,57.4,53.8,57,53.2,57z"/>
	<path class="st0" d="M50.2,57c-0.6,0-1,0.4-1,1v1c0,0.6,0.4,1,1,1s1-0.4,1-1v-1C51.2,57.4,50.8,57,50.2,57z"/>
	<path class="st0" d="M47.2,57c-0.6,0-1,0.4-1,1v1c0,0.6,0.4,1,1,1s1-0.4,1-1v-1C48.2,57.4,47.8,57,47.2,57z"/>
	<path class="st0" d="M58.2,6c-2.6,0-4.9,1.4-6.1,3.6C51.1,8,49.3,7,47.2,7c-0.6,0-1,0.4-1,1s0.4,1,1,1c2.2,0,4,1.8,4,4
		c0,0.6,0.4,1,1,1s1-0.4,1-1c0-2.8,2.2-5,5-5c0.6,0,1-0.4,1-1S58.8,6,58.2,6z"/>
</g>
</svg>
